<svg width="358" height="40" viewBox="0 0 358 40" fill="none" xmlns="http://www.w3.org/2000/svg">
<path d="M96.704 9.73599C98.3 9.73599 99.706 10.002 100.96 10.534C102.214 11.066 103.278 11.75 104.114 12.624C105.824 14.258 106.85 16.348 107.154 18.856L101.036 19.008C100.77 17.906 100.238 16.994 99.516 16.272C98.794 15.55 97.92 15.208 96.97 15.208C96.02 15.208 95.184 15.36 94.5 15.664C93.816 15.968 93.208 16.424 92.714 17.032C91.536 18.476 90.966 20.452 90.966 22.998C90.966 25.544 91.498 27.444 92.6 28.736C93.702 30.028 95.032 30.674 96.59 30.674C98.148 30.674 99.288 30.294 99.972 29.572C100.656 28.85 101.036 27.824 101.036 26.57H107.154C107.154 29.306 106.242 31.586 104.418 33.41C102.556 35.272 99.972 36.184 96.628 36.184C93.322 36.184 90.586 34.968 88.344 32.574C85.988 29.99 84.81 26.798 84.81 22.96C84.81 18.894 85.988 15.664 88.344 13.232C90.624 10.876 93.398 9.73599 96.704 9.73599Z" fill="white"/>
<path d="M127.294 9.81201C128.966 9.81201 130.562 10.078 132.006 10.61C133.488 11.142 134.742 11.94 135.806 13.042C138.162 15.436 139.34 18.742 139.34 22.998C139.34 27.178 138.162 30.446 135.806 32.84C133.678 35.044 130.828 36.108 127.294 36.108C123.722 36.108 120.872 35.006 118.668 32.84C116.312 30.484 115.134 27.178 115.134 22.998C115.134 18.704 116.312 15.398 118.668 13.042C120.834 10.876 123.722 9.81201 127.294 9.81201ZM133.298 22.96C133.298 20.338 132.766 18.362 131.74 17.032C130.714 15.702 129.27 15.056 127.446 15.056C125.622 15.056 124.102 15.702 122.962 17.032C121.784 18.362 121.214 20.338 121.214 22.96C121.214 25.582 121.746 27.558 122.772 28.888C123.798 30.218 125.242 30.864 127.066 30.864C128.89 30.864 130.372 30.218 131.55 28.888C132.728 27.558 133.298 25.582 133.298 22.96Z" fill="white"/>
<path d="M165.788 31.586C164.23 34.626 161.874 36.146 158.682 36.146C155.49 36.146 152.83 34.93 150.664 32.498C148.422 29.952 147.32 26.722 147.32 22.846C147.32 18.932 148.384 15.778 150.512 13.346C152.602 10.99 155.224 9.812 158.34 9.812C161.456 9.812 163.812 11.066 165.37 13.574V0.160004H171.488V35.424H166.51L165.788 31.586ZM159.442 15.208C157.732 15.208 156.288 15.892 155.148 17.298C154.008 18.704 153.438 20.528 153.438 22.884C153.438 25.202 154.008 27.102 155.186 28.508C156.364 29.914 157.808 30.636 159.594 30.636C161.076 30.636 162.406 30.066 163.546 28.888C164.762 27.672 165.332 26.19 165.332 24.366V21.136C165.256 19.35 164.648 17.906 163.546 16.766C162.52 15.74 161.152 15.208 159.442 15.208Z" fill="white"/>
<path d="M189.614 20.794C191.59 20.794 193.908 21.136 196.53 21.782V19.312C196.53 17.564 196.188 16.272 195.466 15.436C194.744 14.6 193.604 14.182 192.008 14.182C190.412 14.182 189.196 14.486 188.322 15.132C187.448 15.778 187.03 16.652 187.03 17.83H180.38C180.38 14.98 181.368 12.928 183.382 11.636C185.396 10.382 188.208 9.73599 191.818 9.73599C196.948 9.73599 200.292 11.522 201.812 15.132C202.344 16.386 202.572 17.83 202.572 19.502V35.424H197.252L196.796 32.08C195.2 34.778 192.692 36.146 189.386 36.146C186.156 36.146 183.648 35.348 181.862 33.79C180.228 32.27 179.392 30.37 179.392 28.052C179.392 25.734 180.304 23.948 182.128 22.694C183.99 21.44 186.46 20.794 189.614 20.794ZM196.53 25.658C194.516 25.126 192.616 24.822 190.868 24.822C187.562 24.822 185.928 25.924 185.928 28.128C185.928 29.04 186.308 29.838 187.068 30.522C187.828 31.206 189.044 31.51 190.716 31.51C192.388 31.51 193.756 30.94 194.82 29.838C195.884 28.736 196.454 27.33 196.53 25.658Z" fill="white"/>
<path d="M218.722 15.018C220.318 11.218 222.712 9.31799 225.866 9.31799C226.474 9.31799 227.272 9.43199 228.184 9.69799L228.07 16.082C227.044 15.854 226.056 15.74 225.068 15.74C220.812 15.74 218.684 18.704 218.684 24.594V36.146H212.3V9.73599H218.684V15.018H218.722Z" fill="white"/>
<path d="M256.152 17.222C256.57 18.666 256.798 19.996 256.798 21.174C256.798 22.39 256.722 23.454 256.608 24.404H240.458C240.534 26.418 241.028 28.09 241.94 29.344C242.852 30.598 244.258 31.244 246.158 31.244C248.666 31.244 250.148 30.142 250.642 27.938H256.76C256.342 30.446 255.202 32.422 253.302 33.866C251.364 35.386 248.97 36.146 246.158 36.146C242.852 36.146 240.116 34.93 237.874 32.536C235.594 30.028 234.416 26.836 234.416 22.922C234.416 18.894 235.556 15.702 237.874 13.27C240.078 10.952 242.814 9.77402 246.158 9.77402C249.616 9.77402 252.314 10.99 254.214 13.422C255.088 14.524 255.734 15.778 256.152 17.222ZM246.196 14.6C244.486 14.6 243.156 15.17 242.168 16.272C241.218 17.374 240.648 18.818 240.458 20.566H251.098C251.098 17.868 250.224 16.044 248.514 15.132C247.906 14.79 247.146 14.6 246.196 14.6Z" fill="white"/>
<path d="M52.168 9.77399H43.048C41.756 9.77399 41.11 11.332 42.022 12.244L52.738 22.96L42.06 33.676C41.148 34.588 41.794 36.146 43.086 36.146H52.206C52.586 36.146 52.966 35.994 53.232 35.728L64.974 23.986C65.544 23.416 65.544 22.504 64.974 21.934L53.232 10.192C52.928 9.92599 52.548 9.77399 52.168 9.77399Z" fill="white"/>
<path d="M13.218 22.96L23.934 12.244C24.846 11.332 24.2 9.77399 22.908 9.77399H13.788C13.408 9.77399 13.028 9.92599 12.762 10.192L1.02 21.934C0.449999 22.504 0.449999 23.416 1.02 23.986L12.8 35.728C13.066 35.994 13.446 36.146 13.826 36.146H22.946C24.238 36.146 24.884 34.588 23.972 33.676L13.218 22.96Z" fill="white"/>
<path d="M36.284 19.692H29.71V26.266H36.284V19.692Z" fill="white"/>
<path d="M282.372 39.566H280.928V26.76H282.372V28.204H282.6C282.904 27.634 283.36 27.216 283.93 26.95C284.5 26.646 285.108 26.532 285.754 26.532C286.324 26.532 286.856 26.646 287.35 26.836C287.844 27.064 288.3 27.33 288.68 27.748C289.06 28.128 289.364 28.622 289.592 29.192C289.82 29.762 289.934 30.408 289.934 31.168V31.548C289.934 32.308 289.82 32.954 289.592 33.524C289.364 34.094 289.06 34.588 288.68 34.968C288.3 35.348 287.844 35.652 287.312 35.842C286.78 36.032 286.248 36.146 285.678 36.146C285.374 36.146 285.07 36.108 284.766 36.032C284.462 35.956 284.158 35.842 283.892 35.728C283.626 35.576 283.36 35.424 283.132 35.196C282.904 35.006 282.714 34.74 282.562 34.474H282.334V39.566H282.372ZM285.412 34.778C285.868 34.778 286.248 34.702 286.628 34.55C287.008 34.398 287.312 34.17 287.578 33.904C287.844 33.638 288.072 33.296 288.224 32.878C288.376 32.46 288.452 32.004 288.452 31.51V31.13C288.452 30.636 288.376 30.18 288.224 29.8C288.072 29.42 287.844 29.04 287.578 28.774C287.312 28.47 286.97 28.28 286.59 28.09C286.21 27.9 285.83 27.862 285.374 27.862C284.956 27.862 284.538 27.938 284.196 28.128C283.816 28.28 283.512 28.508 283.246 28.812C282.98 29.116 282.752 29.458 282.6 29.876C282.448 30.294 282.372 30.75 282.372 31.244V31.472C282.372 31.966 282.448 32.422 282.6 32.84C282.752 33.258 282.98 33.6 283.246 33.904C283.512 34.208 283.854 34.436 284.196 34.588C284.614 34.702 284.994 34.778 285.412 34.778Z" fill="white"/>
<path d="M292.024 26.76H295.33V27.976H295.558C295.786 27.482 296.128 27.102 296.546 26.874C296.964 26.646 297.458 26.532 298.028 26.532C298.94 26.532 299.7 26.836 300.27 27.444C300.84 28.052 301.144 28.926 301.182 30.066L299.662 30.294C299.662 29.458 299.472 28.85 299.054 28.47C298.636 28.09 298.142 27.9 297.572 27.9C297.192 27.9 296.85 27.976 296.584 28.128C296.318 28.28 296.09 28.47 295.9 28.736C295.71 29.002 295.596 29.306 295.482 29.648C295.368 29.99 295.368 30.37 295.368 30.75V34.626H297.686V35.956H291.834V34.626H293.924V28.166H292.062V26.76H292.024Z" fill="white"/>
<path d="M312.392 31.434C312.392 32.194 312.278 32.878 312.012 33.448C311.746 34.018 311.442 34.512 311.024 34.93C310.606 35.348 310.112 35.614 309.542 35.842C308.972 36.032 308.402 36.146 307.794 36.146C307.186 36.146 306.616 36.032 306.046 35.842C305.476 35.614 305.02 35.348 304.602 34.93C304.184 34.55 303.842 34.056 303.614 33.448C303.348 32.878 303.234 32.194 303.234 31.434V31.206C303.234 30.446 303.348 29.8 303.614 29.192C303.88 28.622 304.184 28.128 304.64 27.71C305.058 27.292 305.552 26.988 306.122 26.798C306.692 26.608 307.262 26.494 307.87 26.494C308.478 26.494 309.048 26.608 309.618 26.798C310.188 27.026 310.644 27.33 311.1 27.71C311.518 28.128 311.86 28.622 312.126 29.192C312.392 29.762 312.506 30.446 312.506 31.206V31.434H312.392ZM307.832 34.778C308.288 34.778 308.668 34.702 309.048 34.55C309.428 34.398 309.732 34.17 310.036 33.866C310.302 33.562 310.53 33.22 310.682 32.802C310.834 32.384 310.91 31.928 310.91 31.396V31.168C310.91 30.674 310.834 30.218 310.682 29.8C310.53 29.382 310.302 29.04 310.036 28.736C309.77 28.432 309.428 28.204 309.048 28.052C308.668 27.9 308.25 27.786 307.832 27.786C307.414 27.786 306.996 27.862 306.616 28.052C306.236 28.204 305.894 28.432 305.628 28.736C305.362 29.04 305.134 29.382 304.982 29.8C304.83 30.218 304.754 30.674 304.754 31.168V31.396C304.754 31.928 304.83 32.384 304.982 32.802C305.134 33.22 305.362 33.562 305.628 33.866C305.894 34.17 306.236 34.398 306.616 34.55C306.996 34.702 307.376 34.778 307.832 34.778Z" fill="white"/>
<path d="M316.04 26.76H321.132V38.122C321.132 38.54 321.018 38.882 320.752 39.148C320.486 39.414 320.144 39.566 319.726 39.566H315.622V38.236H319.194C319.536 38.236 319.688 38.046 319.688 37.666V28.052H316.04V26.76ZM319.118 24.024C319.118 23.682 319.232 23.378 319.498 23.112C319.764 22.846 320.068 22.732 320.41 22.732C320.752 22.732 321.056 22.846 321.322 23.112C321.588 23.378 321.702 23.682 321.702 24.024C321.702 24.366 321.588 24.67 321.322 24.936C321.056 25.202 320.752 25.316 320.41 25.316C320.068 25.316 319.764 25.202 319.498 24.936C319.232 24.67 319.118 24.366 319.118 24.024Z" fill="white"/>
<path d="M327.364 31.738C327.402 32.65 327.668 33.372 328.2 33.942C328.732 34.512 329.454 34.778 330.404 34.778C330.822 34.778 331.202 34.74 331.544 34.626C331.848 34.512 332.152 34.398 332.38 34.208C332.608 34.018 332.798 33.828 332.95 33.6C333.102 33.372 333.216 33.144 333.292 32.878L334.66 33.258C334.394 34.094 333.938 34.778 333.216 35.31C332.532 35.842 331.582 36.108 330.404 36.108C329.758 36.108 329.15 35.994 328.618 35.766C328.086 35.538 327.592 35.234 327.212 34.816C326.832 34.398 326.528 33.904 326.3 33.334C326.072 32.764 325.958 32.118 325.958 31.434V30.978C325.958 30.332 326.072 29.762 326.3 29.192C326.528 28.622 326.832 28.166 327.25 27.748C327.668 27.33 328.124 27.026 328.694 26.798C329.226 26.57 329.834 26.456 330.48 26.456C331.24 26.456 331.886 26.608 332.418 26.874C332.95 27.14 333.406 27.482 333.748 27.9C334.09 28.318 334.356 28.736 334.508 29.23C334.66 29.724 334.774 30.142 334.774 30.56V31.738H327.364ZM330.442 27.862C330.024 27.862 329.644 27.938 329.302 28.052C328.96 28.166 328.656 28.356 328.39 28.584C328.124 28.812 327.896 29.078 327.744 29.42C327.592 29.724 327.478 30.066 327.44 30.446H333.33C333.292 30.066 333.216 29.686 333.026 29.382C332.874 29.078 332.646 28.774 332.38 28.584C332.114 28.356 331.81 28.204 331.468 28.052C331.126 27.9 330.784 27.862 330.442 27.862Z" fill="white"/>
<path d="M337.282 26.76H340.17V22.998H341.614V26.76H345.148V28.09H341.614V34.018C341.614 34.398 341.766 34.588 342.108 34.588H344.692V35.918H341.576C341.158 35.918 340.816 35.766 340.55 35.5C340.284 35.234 340.17 34.892 340.17 34.474V28.09H337.282V26.76Z" fill="white"/>
<path d="M357.46 31.434C357.46 32.194 357.346 32.878 357.08 33.448C356.814 34.018 356.51 34.512 356.092 34.93C355.674 35.348 355.18 35.614 354.61 35.842C354.04 36.032 353.47 36.146 352.862 36.146C352.254 36.146 351.684 36.032 351.114 35.842C350.544 35.614 350.088 35.348 349.67 34.93C349.252 34.55 348.91 34.056 348.682 33.448C348.416 32.878 348.302 32.194 348.302 31.434V31.206C348.302 30.446 348.416 29.8 348.682 29.192C348.948 28.622 349.252 28.128 349.708 27.71C350.126 27.292 350.62 26.988 351.19 26.798C351.76 26.608 352.33 26.494 352.938 26.494C353.546 26.494 354.116 26.608 354.686 26.798C355.256 27.026 355.712 27.33 356.168 27.71C356.586 28.128 356.928 28.622 357.194 29.192C357.46 29.762 357.574 30.446 357.574 31.206V31.434H357.46ZM352.862 34.778C353.318 34.778 353.698 34.702 354.078 34.55C354.458 34.398 354.762 34.17 355.066 33.866C355.332 33.562 355.56 33.22 355.712 32.802C355.864 32.384 355.94 31.928 355.94 31.396V31.168C355.94 30.674 355.864 30.218 355.712 29.8C355.56 29.382 355.332 29.04 355.066 28.736C354.8 28.432 354.458 28.204 354.078 28.052C353.698 27.9 353.28 27.786 352.862 27.786C352.444 27.786 352.026 27.862 351.646 28.052C351.266 28.204 350.924 28.432 350.658 28.736C350.392 29.04 350.164 29.382 350.012 29.8C349.86 30.218 349.784 30.674 349.784 31.168V31.396C349.784 31.928 349.86 32.384 350.012 32.802C350.164 33.22 350.392 33.562 350.658 33.866C350.924 34.17 351.266 34.398 351.646 34.55C352.026 34.702 352.444 34.778 352.862 34.778Z" fill="white"/>
<path d="M271.314 31.282H266.45V36.146H271.314V31.282Z" fill="white"/>
</svg>
