<svg width="18" height="18" viewBox="0 0 18 18" fill="none" xmlns="http://www.w3.org/2000/svg">
<path d="M15.3916 7.33008H15.0364L15.1938 5.625H16.3828V3.95508C16.3828 3.0343 15.6337 2.28516 14.7129 2.28516H12.7537L11.6111 0H6.38893L5.24635 2.28516H3.28713C2.36635 2.28516 1.6172 3.0343 1.6172 3.95508V5.625H2.80622L2.96365 7.33008H2.6084C1.68762 7.33008 0.938477 8.07922 0.938477 9C0.938477 9.92078 1.68762 10.6699 2.6084 10.6699H3.27201L3.9488 18H14.0512L14.728 10.6699H15.3916C16.3124 10.6699 17.0615 9.92078 17.0615 9C17.0615 8.07922 16.3124 7.33008 15.3916 7.33008ZM7.04079 1.05469H10.9593L11.5745 2.28516H6.42556L7.04079 1.05469ZM2.67189 3.95508C2.67189 3.61586 2.9479 3.33984 3.28713 3.33984H14.7129C15.0521 3.33984 15.3281 3.61586 15.3281 3.95508V4.57031H2.67189V3.95508ZM2.6084 9.61523C2.26918 9.61523 1.99316 9.33922 1.99316 9C1.99316 8.66078 2.26918 8.38477 2.6084 8.38477H3.06104L3.17466 9.61523H2.6084ZM13.0894 16.9453H4.91061L3.86541 5.625H14.1346L13.0894 16.9453ZM15.3916 9.61523H14.8254L14.939 8.38477H15.3917C15.7309 8.38477 16.0069 8.66078 16.0069 9C16.0069 9.33922 15.7309 9.61523 15.3916 9.61523Z" fill="white"/>
</svg>
